<svg xmlns="http://www.w3.org/2000/svg" width="402" height="401.999" viewBox="0 0 402 401.999"><switch><g><path fill="#FFF" d="M0 0h402v401.999H0z"/><radialGradient id="a" cx="2384.96" cy="-21089.256" r="166.55" fx="2384.786" fy="-21043.324" gradientTransform="matrix(-1.1545 0 0 .3023 2954.439 6691.376)" gradientUnits="userSpaceOnUse"><stop offset="0" stop-color="#005681"/><stop offset=".078" stop-color="#035883"/><stop offset=".136" stop-color="#0d6087"/><stop offset=".188" stop-color="#1d6c8f"/><stop offset=".236" stop-color="#337e9b"/><stop offset=".281" stop-color="#5094aa"/><stop offset=".307" stop-color="#65a4b4"/><stop offset=".38" stop-color="#8cbbc7"/><stop offset=".459" stop-color="#afd0d8"/><stop offset=".543" stop-color="#cce1e6"/><stop offset=".632" stop-color="#e3eef1"/><stop offset=".729" stop-color="#f3f8f9"/><stop offset=".838" stop-color="#fcfdfe"/><stop offset=".988" stop-color="#fff"/></radialGradient><path fill="url(#a)" d="M8.685 316.096c0-27.799 86.106-50.343 192.318-50.343s192.313 22.544 192.313 50.343c0 27.791-86.102 50.336-192.313 50.336S8.685 343.887 8.685 316.096z"/><radialGradient id="b" cx="2384.96" cy="-21089.256" r="166.546" fx="2384.786" fy="-21043.326" gradientTransform="matrix(-1.1545 0 0 .3023 2954.439 6691.376)" gradientUnits="userSpaceOnUse"><stop offset=".046" stop-color="#003253"/><stop offset=".091" stop-color="#053959"/><stop offset=".155" stop-color="#154b68"/><stop offset=".23" stop-color="#2e6982"/><stop offset=".312" stop-color="#5192a6"/><stop offset=".341" stop-color="#5fa3b4"/><stop offset=".363" stop-color="#6facbb"/><stop offset=".424" stop-color="#95c2cd"/><stop offset=".489" stop-color="#b6d5dd"/><stop offset=".559" stop-color="#d1e4e9"/><stop offset=".636" stop-color="#e5f0f3"/><stop offset=".721" stop-color="#f4f9fa"/><stop offset=".824" stop-color="#fcfefe"/><stop offset=".988" stop-color="#fff"/></radialGradient><path fill="url(#b)" d="M89.369 357.085c31.475 5.884 70.01 9.347 111.634 9.347 41.622 0 80.155-3.463 111.63-9.346-24.696-20.201-65.487-33.401-111.633-33.401-46.145 0-86.936 13.2-111.631 33.4z"/><radialGradient id="c" cx="200.384" cy="169.63" r="164.546" fx="200.035" fy="138.759" gradientUnits="userSpaceOnUse"><stop offset=".325" stop-color="#0065ac"/><stop offset=".329" stop-color="#0065ac"/><stop offset=".612" stop-color="#0065ac"/><stop offset=".649" stop-color="#026ab0"/><stop offset=".695" stop-color="#0779ba"/><stop offset=".746" stop-color="#1092cb"/><stop offset=".799" stop-color="#1bb5e3"/><stop offset=".81" stop-color="#1ebde8"/><stop offset=".837" stop-color="#2cc2ea"/><stop offset=".887" stop-color="#50cff0"/><stop offset=".955" stop-color="#8be3f9"/><stop offset="1" stop-color="#b5f2ff"/></radialGradient><circle fill="url(#c)" cx="201" cy="195.87" r="138.313"/><radialGradient id="d" cx="200.481" cy="176.603" r="160.961" fx="200.458" fy="122.125" gradientUnits="userSpaceOnUse"><stop offset=".122" stop-color="#00539b"/><stop offset=".181" stop-color="#0058a1"/><stop offset=".507" stop-color="#0073bf"/><stop offset=".575" stop-color="#0278c2"/><stop offset=".658" stop-color="#0887ca"/><stop offset=".749" stop-color="#12a0d8"/><stop offset=".83" stop-color="#1ebde8"/><stop offset=".85" stop-color="#2cc3ea"/><stop offset=".889" stop-color="#50d3f0"/><stop offset=".941" stop-color="#8bedf9"/><stop offset=".975" stop-color="#b5ffff"/></radialGradient><path fill="url(#d)" d="M331.166 163.329c-.1-.604.002-1.135.226-1.586-1.224-5.447-3.456-10.71-5.405-15.891-2.29-6.086-4.668-11.954-8.044-17.543-6.702-11.095-15.231-21.641-24.507-30.694-9.529-9.297-20.548-15.99-32.293-22.115-11.637-6.068-24.402-11.679-37.816-10.836-1.248.079-2.008-.626-2.286-1.528a35.417 35.417 0 00-8.177-1.733c-2.888-.256-5.862-.021-8.723-.378-2.485.048-4.971.086-7.453.205a2.766 2.766 0 01-.611.101c-4.685.251-8.998 1.51-13.572 2.387-4.229.811-8.518 1.297-12.739 2.146-8.709 1.754-17.358 5.158-25.411 8.867-7.871 3.625-15.316 7.997-22.227 13.237-3.324 2.523-6.542 5.186-9.683 7.934-2.169 1.896-4.716 3.782-6.785 5.939a2.705 2.705 0 01-.257.752c-2.533 4.959-6.969 8.737-10.402 13.061-3.74 4.709-7.316 9.584-10.41 14.746-5.992 10-10.607 21.066-13.629 32.322-3.177 11.832-5.097 24.408-4.691 36.684.385 11.655 3.5 22.951 5.795 34.326 3.039 6.25 4.506 13.049 7.042 19.5 2.671 6.795 6.674 13.717 11.02 19.582 2.409 3.252 5.116 6.264 7.599 9.459 2.1 2.701 4.045 5.453 6.484 7.875 4.758 4.723 10.15 8.734 15.271 13.045 5.408 4.554 10.909 9.277 17.283 12.445 6.515 3.235 13.91 5.066 20.756 7.526 6.943 2.495 14.027 5.47 21.268 6.979 6.745 1.407 13.648 1.364 20.509 1.354.41-.125.883-.13 1.409.034 4.744 1.486 9.779-.475 14.492-1.258 4.13-.686 8.024-1.846 11.955-3.148.399-.555 1.039-.945 1.924-.962 5.929-.109 11.925-3.776 17.331-5.868 6.223-2.408 12.327-4.865 18.222-8.023 5.885-3.154 11.591-6.65 17.029-10.524 5.258-3.745 9.873-8.096 14.9-12.101.084-.067.168-.127.254-.182 15.955-15.232 26.572-35.418 32.375-56.574 3-10.936 4.875-22.178 5.389-33.512.242-5.354.244-10.72-.1-16.068-.439-6.785-2.203-13.3-3.312-19.982z"/><radialGradient id="e" cx="200.456" cy="176.603" r="160.973" fx="216.427" fy="122.06" gradientUnits="userSpaceOnUse"><stop offset=".023" stop-color="#1ebde8"/><stop offset=".04" stop-color="#1bb5e1"/><stop offset=".067" stop-color="#149ecf"/><stop offset=".099" stop-color="#097ab2"/><stop offset=".122" stop-color="#005d9b"/><stop offset=".24" stop-color="#0067ac"/><stop offset=".383" stop-color="#0070ba"/><stop offset=".507" stop-color="#0073bf"/><stop offset=".575" stop-color="#0278c2"/><stop offset=".658" stop-color="#0887ca"/><stop offset=".749" stop-color="#12a0d8"/><stop offset=".83" stop-color="#1ebde8"/><stop offset=".85" stop-color="#2cc3ea"/><stop offset=".889" stop-color="#50d3f0"/><stop offset=".941" stop-color="#8bedf9"/><stop offset=".975" stop-color="#b5ffff"/></radialGradient><path fill="url(#e)" d="M205.114 332.831c.273-.297.614-.52.995-.654.107-.066.215-.136.324-.199.154-.09.312-.172.472-.254-66.415-9.205-117.553-66.198-117.553-135.145 0-69.062 51.309-126.127 117.885-135.188-.519-.263-1.034-.525-1.576-.706a2.771 2.771 0 01-.685-.339 2.544 2.544 0 01-1.502-.193c-.824-.016-1.647-.03-2.475-.03-75.362 0-136.455 61.093-136.455 136.456 0 75.361 61.093 136.455 136.455 136.455.837 0 1.67-.014 2.502-.029a2.553 2.553 0 011.613-.174z"/><radialGradient id="f" cx="200.455" cy="176.603" r="160.974" fx="191.006" fy="121.716" gradientUnits="userSpaceOnUse"><stop offset=".023" stop-color="#1ebde8"/><stop offset=".04" stop-color="#1bb5e1"/><stop offset=".067" stop-color="#149ecf"/><stop offset=".099" stop-color="#097ab2"/><stop offset=".122" stop-color="#005d9b"/><stop offset=".251" stop-color="#0c69aa"/><stop offset=".426" stop-color="#1773b8"/><stop offset=".577" stop-color="#1b77bd"/><stop offset=".601" stop-color="#0063ad"/><stop offset=".651" stop-color="#0571b6"/><stop offset=".745" stop-color="#1196ce"/><stop offset=".83" stop-color="#1ebde8"/><stop offset=".85" stop-color="#2cc3ea"/><stop offset=".889" stop-color="#50d3f0"/><stop offset=".941" stop-color="#8bedf9"/><stop offset=".975" stop-color="#b5ffff"/></radialGradient><path fill="url(#f)" d="M337.455 196.579c0-74.579-59.83-135.172-134.108-136.426 52.725 22.828 89.618 75.314 89.618 136.426 0 61.11-36.893 113.598-89.617 136.425 74.278-1.255 134.107-61.849 134.107-136.425z"/><radialGradient id="g" cx="202.452" cy="221.853" r="182.295" fx="203.846" fy="394.769" gradientUnits="userSpaceOnUse"><stop offset=".055" stop-color="#0073bf"/><stop offset=".347" stop-color="#0073bf"/><stop offset=".434" stop-color="#047cc4"/><stop offset=".575" stop-color="#0d94d1"/><stop offset=".751" stop-color="#1dbbe7"/><stop offset=".759" stop-color="#1ebde8"/><stop offset=".781" stop-color="#2cc2ea"/><stop offset=".824" stop-color="#52cff0"/><stop offset=".883" stop-color="#8ee4f9"/><stop offset=".917" stop-color="#b5f2ff"/></radialGradient><path fill="url(#g)" d="M289.889 154.467c-.853-5.396-2.219-10.74-4.129-15.862-1.992-5.343-4.579-10.27-7.555-15.121-2.357-3.844-4.697-7.723-6.279-11.948-1.131-2.106-2.797-3.892-4.312-5.737a340.461 340.461 0 01-5.36-6.729c-3.705-4.746-7.612-9.024-12.224-12.912-4.817-4.061-9.845-7.865-14.609-11.991-2.06-1.782-4.109-3.578-6.198-5.323-.521.44-1.249.609-2.126.257-1.618-.648-3.331-.996-5.002-1.481-.846-.243-1.844-.632-2.816-.869-4.066-.39-8.146-.633-12.229-.599-6.679.057-13.277.959-19.91 1.644-6.338.657-12.974.913-19.048 2.975-4.748 1.612-9.286 3.794-14.079 5.262-.034.524-.271 1.055-.792 1.523-2.988 2.684-6.304 4.936-9.508 7.346-3.536 2.663-6.705 5.703-9.992 8.654-6.026 5.408-11.8 11.139-16.95 17.397-5.191 6.309-9.809 13.121-13.346 20.498a160.124 160.124 0 00-5.328 12.377c-1.016 2.677-1.599 5.753-2.778 8.396a4.71 4.71 0 01.348.451c.36.503.411 1.271.267 1.861 3.701 7.074 9.634 13.277 15.973 17.855 21.08 15.228 53.156 24.951 89.084 24.951s68.005-9.724 89.084-24.949c.291-.211.582-.424.871-.642-.013-.101-.03-.201-.03-.304 0-.61.247-1.363.732-1.768.126-.105.226-.232.329-.359.022-.026.05-.053.074-.078-.985-4.881-1.383-9.847-2.162-14.775z"/><radialGradient id="h" cx="204.314" cy="221.657" r="179.626" fx="205.687" fy="392.042" gradientUnits="userSpaceOnUse"><stop offset=".055" stop-color="#0073bf"/><stop offset=".408" stop-color="#0073bf"/><stop offset=".492" stop-color="#047cc4"/><stop offset=".63" stop-color="#0e94d3"/><stop offset=".79" stop-color="#1eb8e8"/><stop offset=".808" stop-color="#2cbdea"/><stop offset=".842" stop-color="#52ccf0"/><stop offset=".887" stop-color="#8ee3f9"/><stop offset=".915" stop-color="#b5f2ff"/></radialGradient><path fill="url(#h)" d="M304.078 119.69a2.41 2.41 0 01-.293-.397c-.023-.042-.041-.082-.062-.122a2.498 2.498 0 01-.446-.543c-.012-.021-.021-.045-.032-.066-.026-.024-.059-.042-.085-.068a2.531 2.531 0 01-.639-1.131c-1.107-1.461-2.5-2.758-3.689-4.136-1.396-1.617-2.719-3.273-4.182-4.836-1.533-1.637-3.025-3.312-4.56-4.949-.665-.711-1.418-1.354-2.069-2.076a203.354 203.354 0 00-3.074-2.518c-5.676-4.549-11.898-8.283-18.067-12.11-3.466-2.148-6.933-4.355-10.608-6.137-3.299-1.602-6.807-2.621-10.231-3.904-3.191-1.195-6.332-3.471-9.647-4.189-2.081-.452-4.203-.482-6.175-1.148-.01 1.224-1.065 2.242-2.247 2.369 32.74 22.322 56.098 57.383 62.932 98.054 9.11-6.822 17.227-16.944 18.783-28.148 1.144-8.244-1.41-16.553-5.609-23.945z"/><radialGradient id="i" cx="202.452" cy="221.851" r="182.293" fx="203.846" fy="394.765" gradientUnits="userSpaceOnUse"><stop offset=".055" stop-color="#0073bf"/><stop offset=".347" stop-color="#0073bf"/><stop offset=".434" stop-color="#047cc4"/><stop offset=".575" stop-color="#0d94d1"/><stop offset=".751" stop-color="#1dbbe7"/><stop offset=".759" stop-color="#1ebde8"/><stop offset=".779" stop-color="#2cc2ea"/><stop offset=".817" stop-color="#52cff0"/><stop offset=".869" stop-color="#8ee4f9"/><stop offset=".9" stop-color="#b5f2ff"/></radialGradient><path fill="url(#i)" d="M156.572 77.635a2.43 2.43 0 01-.793-.758c-2.794 1.432-5.972 2.163-8.875 3.35-4.852 1.982-9.461 4.465-13.907 7.234-7.269 4.526-14.088 9.679-20.767 15.018.169.707-.015 1.484-.756 2.131-2.4 2.093-4.655 4.144-6.764 6.533-1.206 1.367-2.378 2.752-3.619 4.076a2.523 2.523 0 01-.677 1.321c-.076.079-.39.503-.093.079-.082.118-.163.233-.243.35-.285.402-.574.809-.914 1.167-.247.258-.499.514-.729.787-.028.035-.058.068-.086.104a2.458 2.458 0 01-.423.635c-4.202 7.396-6.757 15.713-5.611 23.962.528 3.802 1.814 7.481 3.635 10.952 10.567-32.693 33.134-59.984 62.511-76.689a2.48 2.48 0 01-1.889-.252z"/><radialGradient id="j" cx="202.453" cy="221.853" r="182.295" fx="203.847" fy="394.769" gradientUnits="userSpaceOnUse"><stop offset=".055" stop-color="#0073bf"/><stop offset=".347" stop-color="#0073bf"/><stop offset=".804" stop-color="#68e5ff"/><stop offset=".822" stop-color="#76e7ff"/><stop offset=".858" stop-color="#9ceeff"/><stop offset=".906" stop-color="#d8f8ff"/><stop offset=".935" stop-color="#fff"/></radialGradient><path fill="url(#j)" d="M200.988 71.01c41.597 0 78.742 19.041 103.205 48.882-1.707-3.035-3.693-5.916-5.819-8.578-22.832-28.569-57.97-46.87-97.386-46.87-39.415 0-74.553 18.301-97.385 46.87-2.119 2.653-4.098 5.526-5.799 8.551C122.268 90.04 159.403 71.01 200.988 71.01z"/><radialGradient id="k" cx="201" cy="198.042" r="108.347" fx="200.996" fy="202.038" gradientUnits="userSpaceOnUse"><stop offset="0" stop-color="#005d9b"/><stop offset=".079" stop-color="#0066a6"/><stop offset=".22" stop-color="#0072b4"/><stop offset=".341" stop-color="#0076b9"/><stop offset=".421" stop-color="#027bbc"/><stop offset=".52" stop-color="#0a8ac4"/><stop offset=".629" stop-color="#15a3d0"/><stop offset=".694" stop-color="#1eb6da"/><stop offset=".73" stop-color="#2cbcdd"/><stop offset=".797" stop-color="#50cce5"/><stop offset=".888" stop-color="#8be5f2"/><stop offset=".975" stop-color="#c9ffff"/></radialGradient><path fill="url(#k)" d="M169.752 279.353v-51.202h-51.2v-62.497h51.2v-51.195h62.494v51.195h51.201v62.497h-51.201v51.202z"/><radialGradient id="l" cx="200.064" cy="86.753" r="323.321" fx="201.061" fy="-70.285" gradientUnits="userSpaceOnUse"><stop offset="0" stop-color="#fff"/><stop offset=".556" stop-color="azure"/><stop offset=".556" stop-color="#e5f8fc"/><stop offset=".557" stop-color="#d4eef6"/><stop offset=".557" stop-color="#c9e6f3"/><stop offset=".558" stop-color="#c2e2f1"/><stop offset=".56" stop-color="#c0e1f0"/><stop offset=".614" stop-color="#d2eaf4"/><stop offset=".702" stop-color="#ebf5fa"/><stop offset=".782" stop-color="#fafdfe"/><stop offset=".849" stop-color="#fff"/></radialGradient><path fill="url(#l)" d="M281.276 167.825h-51.2v-51.194h-58.153v51.194h-51.198v58.156h51.198v51.201h58.153v-51.201h51.2z"/></g></switch></svg>